<?xml version="1.0" encoding="utf-8"?>
<!-- Generator: Adobe Illustrator 26.0.1, SVG Export Plug-In . SVG Version: 6.00 Build 0)  -->
<svg version="1.1" id="Слой_1" xmlns="http://www.w3.org/2000/svg" xmlns:xlink="http://www.w3.org/1999/xlink" x="0px" y="0px"
	 viewBox="0 0 518 78" style="enable-background:new 0 0 518 78;" xml:space="preserve">
<style type="text/css">
	.st0{fill:#F2F2F2;}
	.st1{fill:#00314F;}
	.st2{opacity:0.13;}
	.st3{fill:none;stroke:url(#SVGID_1_);stroke-width:3;stroke-miterlimit:10;}
	.st4{fill:none;stroke:url(#SVGID_00000163064413777397230410000011297030902110148508_);stroke-width:3;stroke-miterlimit:10;}
	.st5{fill:none;stroke:url(#SVGID_00000105385139649756947250000003400580196181331348_);stroke-width:3;stroke-miterlimit:10;}
	.st6{fill:none;stroke:url(#SVGID_00000068666067885187883430000017256011402800520105_);stroke-width:3;stroke-miterlimit:10;}
	.st7{fill:none;stroke:url(#SVGID_00000111161558146996014450000017828540973118001056_);stroke-width:3;stroke-miterlimit:10;}
	.st8{fill:none;stroke:url(#SVGID_00000134229367387125440860000014344494850505013124_);stroke-width:3;stroke-miterlimit:10;}
	.st9{fill:none;stroke:#000000;stroke-width:3;stroke-miterlimit:10;}
	.st10{opacity:7.000000e-02;}
	.st11{fill:none;stroke:url(#SVGID_00000109711239441147112210000012842222423238472639_);stroke-width:3;stroke-miterlimit:10;}
	.st12{fill:none;stroke:url(#SVGID_00000080920058161655656080000005412821301603902360_);stroke-width:3;stroke-miterlimit:10;}
	.st13{fill:none;stroke:url(#SVGID_00000052824648039062867100000009953730063115438507_);stroke-width:3;stroke-miterlimit:10;}
	.st14{fill:none;stroke:url(#SVGID_00000101791286907613257130000000575036049428219543_);stroke-width:3;stroke-miterlimit:10;}
	.st15{fill:none;stroke:url(#SVGID_00000096737830686118762950000000928159057113932725_);stroke-width:3;stroke-miterlimit:10;}
	.st16{fill:none;stroke:url(#SVGID_00000120543895062365631920000015496753830244348311_);stroke-width:3;stroke-miterlimit:10;}
	.st17{fill:none;stroke:url(#SVGID_00000032642336138295251310000009045342835184481959_);stroke-width:3;stroke-miterlimit:10;}
	.st18{fill:none;stroke:url(#SVGID_00000051369471985966000800000009827183630142916022_);stroke-width:3;stroke-miterlimit:10;}
	.st19{fill:none;stroke:url(#SVGID_00000131350409090011105250000000472111461968810880_);stroke-width:3;stroke-miterlimit:10;}
	.st20{fill:none;stroke:url(#SVGID_00000181078548575570360910000004558141175085203347_);stroke-width:3;stroke-miterlimit:10;}
	.st21{fill:none;stroke:url(#SVGID_00000157274132229851043200000018347375082110533040_);stroke-width:3;stroke-miterlimit:10;}
	.st22{fill:none;stroke:url(#SVGID_00000145039812285116588360000013443097673513836434_);stroke-width:3;stroke-miterlimit:10;}
	.st23{fill:#FFFFFF;}
	.st24{fill:#5098C7;}
	.st25{fill:none;}
	.st26{fill:#020C16;}
	.st27{opacity:0.29;}
	.st28{fill:none;stroke:#00314F;stroke-miterlimit:10;}
	.st29{fill:#5098C7;stroke:#FFFFFF;stroke-miterlimit:10;}
	.st30{fill:none;stroke:#FFFFFF;stroke-miterlimit:10;}
	.st31{fill:#F7931E;stroke:#5098C7;stroke-width:5;stroke-miterlimit:10;}
	.st32{fill:none;stroke:#5098C7;stroke-width:5;stroke-miterlimit:10;}
	.st33{fill:none;stroke:#5098C7;stroke-width:2;stroke-linecap:round;stroke-miterlimit:10;}
	.st34{fill:none;stroke:#4D4D4D;stroke-miterlimit:10;}
	.st35{opacity:0.65;fill:url(#SVGID_00000029035135536039705860000012223363526901660041_);}
	.st36{opacity:0.69;fill:url(#SVGID_00000031899025688175561760000015814370534809778085_);}
	.st37{fill:none;stroke:#FFFFFF;stroke-width:2;stroke-linecap:round;stroke-miterlimit:10;}
	.st38{fill:none;stroke:#B3B3B3;stroke-miterlimit:10;}
	.st39{fill:none;stroke:#999999;stroke-miterlimit:10;}
	.st40{fill:#1E556B;}
	.st41{fill:#CFD8DC;}
	.st42{fill:none;stroke:#00314F;stroke-width:3;stroke-miterlimit:10;}
	.st43{fill-rule:evenodd;clip-rule:evenodd;fill:#231F20;}
	.st44{fill-rule:evenodd;clip-rule:evenodd;fill:#58595B;}
	.st45{fill-rule:evenodd;clip-rule:evenodd;fill:#FFFFFF;}
	.st46{fill-rule:evenodd;clip-rule:evenodd;fill:#EFBA27;}
	.st47{fill-rule:evenodd;clip-rule:evenodd;fill:#DEA02E;}
	.st48{fill-rule:evenodd;clip-rule:evenodd;fill:#D48B31;}
	.st49{fill:#414042;}
	.st50{fill-rule:evenodd;clip-rule:evenodd;fill:#939598;}
	.st51{fill:#231F20;}
	.st52{fill-rule:evenodd;clip-rule:evenodd;fill:#414042;}
	.st53{fill-rule:evenodd;clip-rule:evenodd;fill:#808285;}
	.st54{fill-rule:evenodd;clip-rule:evenodd;fill:#A7A9AC;}
	.st55{fill-rule:evenodd;clip-rule:evenodd;fill:#BCBEC0;}
	.st56{fill-rule:evenodd;clip-rule:evenodd;fill:#D1D3D4;}
	.st57{fill-rule:evenodd;clip-rule:evenodd;fill:#6D6E71;}
	.st58{fill-rule:evenodd;clip-rule:evenodd;fill:#D9252C;}
	.st59{fill-rule:evenodd;clip-rule:evenodd;fill:#B9272E;}
	.st60{fill-rule:evenodd;clip-rule:evenodd;fill:#FFDD10;}
	.st61{fill:#A7A9AC;}
	.st62{fill-rule:evenodd;clip-rule:evenodd;fill:#F58220;}
	.st63{fill-rule:evenodd;clip-rule:evenodd;fill:#077CA9;}
	.st64{fill:#15608A;}
	.st65{fill-rule:evenodd;clip-rule:evenodd;fill:#BAD5DE;}
	.st66{fill-rule:evenodd;clip-rule:evenodd;fill:#0095DA;}
	.st67{fill-rule:evenodd;clip-rule:evenodd;fill:#D3E3EA;}
	.st68{fill-rule:evenodd;clip-rule:evenodd;fill:#FACB37;}
	.st69{fill:#DEA02E;}
	.st70{fill:#FACB37;}
	.st71{fill:#58595B;}
	.st72{fill-rule:evenodd;clip-rule:evenodd;fill:#E6E7E8;}
	.st73{fill-rule:evenodd;clip-rule:evenodd;fill:#ED1C24;}
	.st74{fill:#808285;}
	.st75{fill-rule:evenodd;clip-rule:evenodd;fill:#11618C;}
	.st76{fill:#077CA9;}
	.st77{fill:#EFBA27;}
	.st78{fill:#6D6E71;}
	.st79{fill:#BCBEC0;}
	.st80{fill-rule:evenodd;clip-rule:evenodd;fill:#90BFCD;}
	.st81{fill:#11618C;}
	.st82{fill-rule:evenodd;clip-rule:evenodd;fill:#1A5A81;}
	.st83{fill-rule:evenodd;clip-rule:evenodd;fill:#A92930;}
	.st84{fill:#D9252C;}
	.st85{fill:#A92930;}
	.st86{fill:#1A5A81;}
	.st87{fill:#5099C8;}
	.st88{fill:none;stroke:#5099C8;stroke-width:2;stroke-linecap:round;stroke-miterlimit:10;}
	.st89{fill:none;stroke:#5099C8;stroke-width:7;stroke-linecap:round;stroke-miterlimit:10;}
	.st90{fill:none;stroke:#5099C8;stroke-width:3;stroke-linecap:round;stroke-miterlimit:10;}
	.st91{opacity:0.69;fill:url(#SVGID_00000083804969834674297930000001899578578823464083_);}
	.st92{fill:none;stroke:#FFFFFF;stroke-linecap:round;stroke-miterlimit:10;}
</style>
<g>
	<polygon class="st1" points="127.8,36.6 92.2,34.3 53.3,25.9 54.7,8.4 93,5 129.1,22.3 92.1,11.1 90.9,28.4 	"/>
	<polygon class="st1" points="175.5,39.5 154.4,29.3 131.9,31.3 131.2,41.5 154,46.5 174.8,47.8 153.4,43.3 154,33 	"/>
	<path class="st1" d="M42.7,63l136.2,1.3L35.4,74.5L4.1,20.8c0,0,187.3,33,187.6,33.3L25.4,33.7L42.7,63z"/>
</g>
<g>
	<path d="M201.4,43.5c-0.6,0-1-0.2-1.3-0.5s-0.5-0.8-0.5-1.3V19.9c0-0.6,0.2-1,0.5-1.3c0.3-0.3,0.8-0.5,1.3-0.5h6.9
		c4.2,0,7.3,1.1,9.6,3.3c2.2,2.2,3.4,5.3,3.4,9.4c0,2-0.3,3.9-0.9,5.4c-0.6,1.6-1.4,2.9-2.5,4c-1.1,1.1-2.5,1.9-4,2.4
		c-1.6,0.6-3.4,0.8-5.5,0.8H201.4z M202.9,40.6h5.2c1.6,0,3-0.2,4.2-0.6c1.2-0.4,2.2-1,3-1.8c0.8-0.8,1.4-1.8,1.8-3.1
		c0.4-1.2,0.6-2.7,0.6-4.3c0-3.3-0.8-5.7-2.4-7.4c-1.6-1.6-4-2.4-7.3-2.4h-5.2V40.6z"/>
	<path d="M237.3,43.8c-2.4,0-4.5-0.5-6.2-1.6c-1.8-1.1-3.1-2.6-4.1-4.5c-1-2-1.5-4.3-1.5-6.9c0-2,0.3-3.8,0.8-5.4
		c0.6-1.6,1.3-3,2.4-4.1c1-1.1,2.3-2,3.7-2.6c1.5-0.6,3.1-0.9,4.9-0.9c2.4,0,4.5,0.5,6.2,1.6c1.8,1.1,3.1,2.6,4.1,4.5
		c1,1.9,1.4,4.2,1.4,6.9c0,2-0.3,3.8-0.8,5.4c-0.6,1.6-1.3,3-2.4,4.1c-1,1.2-2.2,2-3.7,2.6S239.1,43.8,237.3,43.8z M237.3,40.8
		c1.7,0,3.2-0.4,4.4-1.2c1.2-0.8,2.2-1.9,2.8-3.5c0.7-1.5,1-3.3,1-5.4c0-3.2-0.7-5.7-2.1-7.4c-1.4-1.8-3.5-2.6-6.1-2.6
		c-1.7,0-3.2,0.4-4.4,1.2c-1.2,0.8-2.2,1.9-2.8,3.4c-0.6,1.5-1,3.3-1,5.5c0,3.2,0.7,5.6,2.2,7.4C232.6,39.9,234.7,40.8,237.3,40.8z"
		/>
	<path d="M255.8,43.7c-0.5,0-0.9-0.1-1.1-0.4c-0.3-0.3-0.4-0.7-0.4-1.2V19.5c0-0.6,0.1-1,0.4-1.3c0.3-0.3,0.6-0.4,1-0.4
		c0.4,0,0.7,0.1,0.9,0.2s0.5,0.4,0.7,0.8L272.6,39h-0.9V19.4c0-0.5,0.1-0.9,0.4-1.2c0.3-0.3,0.7-0.4,1.2-0.4s0.9,0.1,1.2,0.4
		s0.4,0.7,0.4,1.2v22.6c0,0.5-0.1,0.9-0.4,1.2c-0.3,0.3-0.6,0.4-1,0.4c-0.4,0-0.7-0.1-1-0.2s-0.5-0.4-0.8-0.8l-15.2-20.2h0.8v19.6
		c0,0.5-0.1,0.9-0.4,1.2C256.6,43.6,256.3,43.7,255.8,43.7z"/>
	<path d="M282.4,43.7c-0.5,0-0.9-0.1-1.1-0.4c-0.3-0.3-0.4-0.7-0.4-1.2V19.5c0-0.6,0.1-1,0.4-1.3c0.3-0.3,0.6-0.4,1-0.4
		c0.4,0,0.7,0.1,0.9,0.2s0.5,0.4,0.7,0.8L299.2,39h-0.9V19.4c0-0.5,0.1-0.9,0.4-1.2c0.3-0.3,0.7-0.4,1.2-0.4s0.9,0.1,1.2,0.4
		s0.4,0.7,0.4,1.2v22.6c0,0.5-0.1,0.9-0.4,1.2c-0.3,0.3-0.6,0.4-1,0.4c-0.4,0-0.7-0.1-1-0.2s-0.5-0.4-0.8-0.8l-15.2-20.2h0.8v19.6
		c0,0.5-0.1,0.9-0.4,1.2C283.3,43.6,282.9,43.7,282.4,43.7z"/>
	<path d="M309.4,43.5c-0.6,0-1-0.2-1.3-0.5s-0.5-0.8-0.5-1.3V19.9c0-0.6,0.2-1,0.5-1.3c0.3-0.3,0.8-0.5,1.3-0.5h13.2
		c0.5,0,0.8,0.1,1.1,0.3c0.3,0.2,0.4,0.6,0.4,1c0,0.5-0.1,0.8-0.4,1c-0.3,0.2-0.6,0.4-1.1,0.4h-11.8v8.4h11.1c0.5,0,0.8,0.1,1,0.4
		c0.2,0.2,0.4,0.6,0.4,1c0,0.5-0.1,0.8-0.4,1c-0.2,0.2-0.6,0.3-1,0.3h-11.1v8.8h11.8c0.5,0,0.8,0.1,1.1,0.3c0.3,0.2,0.4,0.6,0.4,1
		c0,0.5-0.1,0.8-0.4,1s-0.6,0.3-1.1,0.3H309.4z"/>
	<path d="M330.4,43.7c-0.6,0-1-0.2-1.3-0.5c-0.3-0.3-0.5-0.8-0.5-1.3v-22c0-0.6,0.2-1,0.5-1.3c0.3-0.3,0.8-0.5,1.3-0.5h12.9
		c0.5,0,0.8,0.1,1.1,0.3c0.2,0.2,0.4,0.6,0.4,1c0,0.5-0.1,0.8-0.4,1c-0.2,0.2-0.6,0.4-1.1,0.4H332v8.5h10.7c0.5,0,0.8,0.1,1,0.4
		c0.2,0.2,0.4,0.6,0.4,1c0,0.5-0.1,0.8-0.4,1c-0.2,0.2-0.6,0.4-1,0.4H332v9.9C332,43.1,331.5,43.7,330.4,43.7z"/>
	<path d="M356.5,43.7c-0.6,0-1-0.1-1.3-0.5c-0.3-0.3-0.4-0.7-0.4-1.3V20.9h-7.9c-0.5,0-0.8-0.1-1.1-0.4c-0.3-0.3-0.4-0.6-0.4-1.1
		c0-0.5,0.1-0.8,0.4-1c0.3-0.2,0.6-0.4,1.1-0.4H366c0.5,0,0.8,0.1,1.1,0.4c0.3,0.2,0.4,0.6,0.4,1c0,0.5-0.1,0.8-0.4,1.1
		s-0.6,0.4-1.1,0.4h-7.9V42c0,0.6-0.1,1-0.4,1.3C357.5,43.6,357,43.7,356.5,43.7z"/>
	<path d="M372.3,43.5c-0.6,0-1-0.2-1.3-0.5s-0.5-0.8-0.5-1.3V19.9c0-0.6,0.2-1,0.5-1.3c0.3-0.3,0.8-0.5,1.3-0.5h13.2
		c0.5,0,0.8,0.1,1.1,0.3c0.3,0.2,0.4,0.6,0.4,1c0,0.5-0.1,0.8-0.4,1c-0.3,0.2-0.6,0.4-1.1,0.4h-11.8v8.4h11.1c0.5,0,0.8,0.1,1,0.4
		c0.2,0.2,0.4,0.6,0.4,1c0,0.5-0.1,0.8-0.4,1c-0.2,0.2-0.6,0.3-1,0.3h-11.1v8.8h11.8c0.5,0,0.8,0.1,1.1,0.3c0.3,0.2,0.4,0.6,0.4,1
		c0,0.5-0.1,0.8-0.4,1s-0.6,0.3-1.1,0.3H372.3z"/>
	<path d="M399,43.7c-0.6,0-1-0.1-1.3-0.5c-0.3-0.3-0.4-0.7-0.4-1.3V20.9h-7.9c-0.5,0-0.8-0.1-1.1-0.4c-0.3-0.3-0.4-0.6-0.4-1.1
		c0-0.5,0.1-0.8,0.4-1c0.3-0.2,0.6-0.4,1.1-0.4h19.1c0.5,0,0.8,0.1,1.1,0.4c0.3,0.2,0.4,0.6,0.4,1c0,0.5-0.1,0.8-0.4,1.1
		s-0.6,0.4-1.1,0.4h-7.9V42c0,0.6-0.1,1-0.4,1.3C400,43.6,399.6,43.7,399,43.7z"/>
	<path d="M414.7,43.7c-0.5,0-0.9-0.1-1.2-0.5c-0.3-0.3-0.4-0.7-0.4-1.3V19.8c0-0.6,0.1-1,0.4-1.3c0.3-0.3,0.7-0.4,1.2-0.4h8.6
		c2.7,0,4.8,0.6,6.3,1.9c1.5,1.3,2.2,3.1,2.2,5.5c0,1.5-0.3,2.9-1,3.9c-0.7,1.1-1.6,1.9-2.9,2.5c-1.3,0.6-2.8,0.9-4.6,0.9l0.4-0.5
		h0.8c1,0,1.8,0.2,2.5,0.7c0.7,0.5,1.3,1.2,1.9,2.3l3.3,6.1c0.2,0.4,0.3,0.8,0.3,1.1c0,0.4-0.2,0.7-0.4,0.9c-0.2,0.2-0.6,0.3-1,0.3
		c-0.5,0-0.9-0.1-1.2-0.3s-0.5-0.5-0.8-0.9l-3.9-7.1c-0.5-1-1.1-1.7-1.8-2c-0.7-0.3-1.6-0.5-2.7-0.5h-4.3V42c0,0.6-0.1,1-0.4,1.3
		C415.7,43.6,415.2,43.7,414.7,43.7z M416.4,30.3h6.4c1.9,0,3.4-0.4,4.3-1.2c1-0.8,1.4-2,1.4-3.5c0-1.6-0.5-2.7-1.4-3.5
		c-1-0.8-2.4-1.2-4.3-1.2h-6.4V30.3z"/>
	<path d="M436.4,43.7c-0.4,0-0.8-0.1-1-0.3S435,43,435,42.6c0-0.3,0-0.7,0.2-1.1l9.8-22.2c0.2-0.5,0.5-0.9,0.8-1.1
		c0.3-0.2,0.7-0.3,1.1-0.3c0.4,0,0.8,0.1,1.1,0.3c0.3,0.2,0.6,0.6,0.8,1.1l9.8,22.2c0.2,0.4,0.3,0.8,0.2,1.1c0,0.3-0.2,0.6-0.4,0.8
		c-0.2,0.2-0.6,0.3-1,0.3c-0.5,0-0.9-0.1-1.2-0.4s-0.5-0.6-0.8-1.1l-2.6-6l1.5,0.9h-15.4l1.5-0.9l-2.6,6c-0.2,0.5-0.5,0.9-0.7,1.1
		C437.2,43.6,436.9,43.7,436.4,43.7z M446.9,21.9l-5.6,13.3l-0.9-0.8h13l-0.8,0.8L446.9,21.9L446.9,21.9z"/>
	<path d="M464.7,43.7c-0.5,0-0.9-0.1-1.1-0.4c-0.3-0.3-0.4-0.7-0.4-1.2V19.5c0-0.6,0.1-1,0.4-1.3c0.3-0.3,0.6-0.4,1-0.4
		c0.4,0,0.7,0.1,0.9,0.2s0.5,0.4,0.7,0.8L481.6,39h-0.9V19.4c0-0.5,0.1-0.9,0.4-1.2c0.3-0.3,0.7-0.4,1.2-0.4s0.9,0.1,1.2,0.4
		s0.4,0.7,0.4,1.2v22.6c0,0.5-0.1,0.9-0.4,1.2c-0.3,0.3-0.6,0.4-1,0.4c-0.4,0-0.7-0.1-1-0.2s-0.5-0.4-0.8-0.8l-15.2-20.2h0.8v19.6
		c0,0.5-0.1,0.9-0.4,1.2C465.6,43.6,465.2,43.7,464.7,43.7z"/>
	<path d="M498.2,43.8c-1.1,0-2.2-0.1-3.3-0.3c-1.1-0.2-2.1-0.5-3-0.8c-0.9-0.4-1.8-0.8-2.5-1.3c-0.3-0.2-0.5-0.5-0.7-0.8
		c-0.1-0.3-0.2-0.6-0.1-0.9c0.1-0.3,0.2-0.6,0.4-0.8c0.2-0.2,0.5-0.3,0.7-0.4c0.3,0,0.6,0,0.9,0.3c1.1,0.7,2.3,1.3,3.5,1.6
		c1.2,0.3,2.5,0.5,4,0.5c2.1,0,3.7-0.4,4.7-1.2c1-0.8,1.5-1.8,1.5-3c0-1-0.4-1.8-1.1-2.4c-0.7-0.6-1.9-1-3.6-1.4l-3.8-0.8
		c-2.3-0.5-3.9-1.3-5.1-2.4c-1.1-1.1-1.7-2.6-1.7-4.4c0-1.1,0.2-2.2,0.7-3.1c0.5-0.9,1.1-1.7,1.9-2.4c0.8-0.7,1.8-1.2,3-1.5
		c1.1-0.4,2.4-0.5,3.8-0.5c1.5,0,2.9,0.2,4.2,0.6s2.5,1,3.5,1.8c0.3,0.2,0.5,0.5,0.6,0.8c0.1,0.3,0.1,0.6,0.1,0.9
		c-0.1,0.3-0.2,0.5-0.4,0.7c-0.2,0.2-0.5,0.3-0.8,0.3c-0.3,0-0.6-0.1-1-0.3c-1-0.7-1.9-1.2-3-1.5c-1-0.3-2.1-0.5-3.3-0.5
		c-1.2,0-2.3,0.2-3.2,0.6c-0.9,0.4-1.6,0.9-2.1,1.6c-0.5,0.7-0.7,1.5-0.7,2.4c0,1.1,0.3,2,1,2.6c0.7,0.6,1.8,1.1,3.4,1.4l3.8,0.8
		c2.4,0.5,4.2,1.3,5.3,2.3s1.7,2.4,1.7,4.2c0,1.1-0.2,2.1-0.7,3c-0.4,0.9-1.1,1.7-1.9,2.3c-0.8,0.6-1.8,1.1-3,1.5
		C501,43.6,499.6,43.8,498.2,43.8z"/>
</g>
<g>
	<g>
		<path class="st24" d="M201.4,56.8c-0.6,0-1,0-1.3,0.1s-0.5,0.2-0.5,0.4v6.1c0,0.2,0.2,0.3,0.5,0.4c0.3,0.1,0.8,0.1,1.3,0.1h6.9
			c4.2,0,7.3-0.3,9.6-0.9c2.2-0.6,3.4-1.5,3.4-2.6c0-0.6-0.3-1.1-0.9-1.5c-0.6-0.4-1.4-0.8-2.5-1.1c-1.1-0.3-2.5-0.5-4-0.7
			c-1.6-0.2-3.4-0.2-5.5-0.2H201.4z M202.9,57.6h5.2c1.6,0,3,0.1,4.2,0.2c1.2,0.1,2.2,0.3,3,0.5c0.8,0.2,1.4,0.5,1.8,0.9
			c0.4,0.3,0.6,0.7,0.6,1.2c0,0.9-0.8,1.6-2.4,2.1c-1.6,0.5-4,0.7-7.3,0.7h-5.2V57.6z"/>
	</g>
	<g>
		<path class="st24" d="M237.3,56.8c-2.4,0-4.5,0.1-6.2,0.4c-1.8,0.3-3.1,0.7-4.1,1.3c-1,0.5-1.5,1.2-1.5,1.9c0,0.6,0.3,1.1,0.8,1.5
			c0.6,0.4,1.3,0.8,2.4,1.1c1,0.3,2.3,0.6,3.7,0.7c1.5,0.2,3.1,0.3,4.9,0.3c2.4,0,4.5-0.1,6.2-0.4c1.8-0.3,3.1-0.7,4.1-1.3
			c1-0.5,1.4-1.2,1.4-1.9c0-0.6-0.3-1.1-0.8-1.5c-0.6-0.4-1.3-0.8-2.4-1.2c-1-0.3-2.2-0.6-3.7-0.7S239.1,56.8,237.3,56.8z
			 M237.3,57.6c1.7,0,3.2,0.1,4.4,0.3c1.2,0.2,2.2,0.5,2.8,1c0.7,0.4,1,0.9,1,1.5c0,0.9-0.7,1.6-2.1,2.1c-1.4,0.5-3.5,0.7-6.1,0.7
			c-1.7,0-3.2-0.1-4.4-0.3c-1.2-0.2-2.2-0.5-2.8-1c-0.6-0.4-1-0.9-1-1.5c0-0.9,0.7-1.6,2.2-2.1C232.6,57.8,234.7,57.6,237.3,57.6z"
			/>
	</g>
	<g>
		<path class="st24" d="M255.8,56.8c-0.5,0-0.9,0-1.1,0.1c-0.3,0.1-0.4,0.2-0.4,0.3v6.3c0,0.2,0.1,0.3,0.4,0.4
			c0.3,0.1,0.6,0.1,1,0.1c0.4,0,0.7,0,0.9-0.1c0.2,0,0.5-0.1,0.7-0.2l15.3-5.6h-0.9v5.5c0,0.1,0.1,0.3,0.4,0.3
			c0.3,0.1,0.7,0.1,1.2,0.1s0.9,0,1.2-0.1s0.4-0.2,0.4-0.3v-6.3c0-0.1-0.1-0.3-0.4-0.3c-0.3-0.1-0.6-0.1-1-0.1c-0.4,0-0.7,0-1,0.1
			c-0.3,0-0.5,0.1-0.8,0.2l-15.2,5.6h0.8v-5.5c0-0.1-0.1-0.3-0.4-0.3C256.6,56.8,256.3,56.8,255.8,56.8z"/>
	</g>
	<g>
		<path class="st24" d="M282.4,56.8c-0.5,0-0.9,0-1.1,0.1c-0.3,0.1-0.4,0.2-0.4,0.3v6.3c0,0.2,0.1,0.3,0.4,0.4
			c0.3,0.1,0.6,0.1,1,0.1c0.4,0,0.7,0,0.9-0.1c0.2,0,0.5-0.1,0.7-0.2l15.3-5.6h-0.9v5.5c0,0.1,0.1,0.3,0.4,0.3
			c0.3,0.1,0.7,0.1,1.2,0.1s0.9,0,1.2-0.1s0.4-0.2,0.4-0.3v-6.3c0-0.1-0.1-0.3-0.4-0.3c-0.3-0.1-0.6-0.1-1-0.1c-0.4,0-0.7,0-1,0.1
			c-0.3,0-0.5,0.1-0.8,0.2l-15.2,5.6h0.8v-5.5c0-0.1-0.1-0.3-0.4-0.3C283.3,56.8,282.9,56.8,282.4,56.8z"/>
	</g>
	<g>
		<path class="st24" d="M309.4,56.8c-0.6,0-1,0-1.3,0.1s-0.5,0.2-0.5,0.4v6.1c0,0.2,0.2,0.3,0.5,0.4c0.3,0.1,0.8,0.1,1.3,0.1h13.2
			c0.5,0,0.8,0,1.1-0.1c0.3-0.1,0.4-0.2,0.4-0.3c0-0.1-0.1-0.2-0.4-0.3c-0.3-0.1-0.6-0.1-1.1-0.1h-11.8v-2.3h11.1c0.5,0,0.8,0,1-0.1
			c0.2-0.1,0.4-0.2,0.4-0.3c0-0.1-0.1-0.2-0.4-0.3c-0.2-0.1-0.6-0.1-1-0.1h-11.1v-2.4h11.8c0.5,0,0.8,0,1.1-0.1
			c0.3-0.1,0.4-0.2,0.4-0.3c0-0.1-0.1-0.2-0.4-0.3s-0.6-0.1-1.1-0.1H309.4z"/>
	</g>
	<g>
		<path class="st24" d="M330.4,56.8c-0.6,0-1,0-1.3,0.1c-0.3,0.1-0.5,0.2-0.5,0.4v6.1c0,0.2,0.2,0.3,0.5,0.4
			c0.3,0.1,0.8,0.1,1.3,0.1h12.9c0.5,0,0.8,0,1.1-0.1c0.2-0.1,0.4-0.2,0.4-0.3c0-0.1-0.1-0.2-0.4-0.3c-0.2-0.1-0.6-0.1-1.1-0.1H332
			v-2.4h10.7c0.5,0,0.8,0,1-0.1c0.2-0.1,0.4-0.2,0.4-0.3c0-0.1-0.1-0.2-0.4-0.3c-0.2-0.1-0.6-0.1-1-0.1H332v-2.7
			C332,56.9,331.5,56.8,330.4,56.8z"/>
	</g>
	<g>
		<path class="st24" d="M356.5,56.8c-0.6,0-1,0-1.3,0.1c-0.3,0.1-0.4,0.2-0.4,0.4v5.9h-7.9c-0.5,0-0.8,0-1.1,0.1
			c-0.3,0.1-0.4,0.2-0.4,0.3c0,0.1,0.1,0.2,0.4,0.3c0.3,0.1,0.6,0.1,1.1,0.1H366c0.5,0,0.8,0,1.1-0.1c0.3-0.1,0.4-0.2,0.4-0.3
			c0-0.1-0.1-0.2-0.4-0.3s-0.6-0.1-1.1-0.1h-7.9v-5.9c0-0.2-0.1-0.3-0.4-0.4C357.5,56.8,357,56.8,356.5,56.8z"/>
	</g>
	<g>
		<path class="st24" d="M372.3,56.8c-0.6,0-1,0-1.3,0.1s-0.5,0.2-0.5,0.4v6.1c0,0.2,0.2,0.3,0.5,0.4c0.3,0.1,0.8,0.1,1.3,0.1h13.2
			c0.5,0,0.8,0,1.1-0.1c0.3-0.1,0.4-0.2,0.4-0.3c0-0.1-0.1-0.2-0.4-0.3c-0.3-0.1-0.6-0.1-1.1-0.1h-11.8v-2.3h11.1c0.5,0,0.8,0,1-0.1
			c0.2-0.1,0.4-0.2,0.4-0.3c0-0.1-0.1-0.2-0.4-0.3c-0.2-0.1-0.6-0.1-1-0.1h-11.1v-2.4h11.8c0.5,0,0.8,0,1.1-0.1
			c0.3-0.1,0.4-0.2,0.4-0.3c0-0.1-0.1-0.2-0.4-0.3s-0.6-0.1-1.1-0.1H372.3z"/>
	</g>
	<g>
		<path class="st24" d="M399,56.8c-0.6,0-1,0-1.3,0.1c-0.3,0.1-0.4,0.2-0.4,0.4v5.9h-7.9c-0.5,0-0.8,0-1.1,0.1
			c-0.3,0.1-0.4,0.2-0.4,0.3c0,0.1,0.1,0.2,0.4,0.3c0.3,0.1,0.6,0.1,1.1,0.1h19.1c0.5,0,0.8,0,1.1-0.1c0.3-0.1,0.4-0.2,0.4-0.3
			c0-0.1-0.1-0.2-0.4-0.3s-0.6-0.1-1.1-0.1h-7.9v-5.9c0-0.2-0.1-0.3-0.4-0.4C400,56.8,399.6,56.8,399,56.8z"/>
	</g>
	<g>
		<path class="st24" d="M414.7,56.8c-0.5,0-0.9,0-1.2,0.1c-0.3,0.1-0.4,0.2-0.4,0.4v6.2c0,0.2,0.1,0.3,0.4,0.4
			c0.3,0.1,0.7,0.1,1.2,0.1h8.6c2.7,0,4.8-0.2,6.3-0.5c1.5-0.4,2.2-0.9,2.2-1.5c0-0.4-0.3-0.8-1-1.1c-0.7-0.3-1.6-0.5-2.9-0.7
			c-1.3-0.2-2.8-0.2-4.6-0.2l0.4,0.1h0.8c1,0,1.8-0.1,2.5-0.2c0.7-0.1,1.3-0.3,1.9-0.6l3.3-1.7c0.2-0.1,0.3-0.2,0.3-0.3
			c0-0.1-0.2-0.2-0.4-0.2c-0.2-0.1-0.6-0.1-1-0.1c-0.5,0-0.9,0-1.2,0.1c-0.3,0.1-0.5,0.1-0.8,0.3l-3.9,2c-0.5,0.3-1.1,0.5-1.8,0.6
			c-0.7,0.1-1.6,0.1-2.7,0.1h-4.3v-2.5c0-0.2-0.1-0.3-0.4-0.4C415.7,56.8,415.2,56.8,414.7,56.8z M416.4,60.5h6.4
			c1.9,0,3.4,0.1,4.3,0.3c1,0.2,1.4,0.6,1.4,1c0,0.4-0.5,0.8-1.4,1c-1,0.2-2.4,0.3-4.3,0.3h-6.4V60.5z"/>
	</g>
	<g>
		<path class="st24" d="M436.4,56.8c-0.4,0-0.8,0-1,0.1c-0.3,0.1-0.4,0.1-0.4,0.2c0,0.1,0,0.2,0.2,0.3l9.8,6.2
			c0.2,0.1,0.5,0.2,0.8,0.3c0.3,0.1,0.7,0.1,1.1,0.1c0.4,0,0.8,0,1.1-0.1c0.3-0.1,0.6-0.2,0.8-0.3l9.8-6.2c0.2-0.1,0.3-0.2,0.2-0.3
			c0-0.1-0.2-0.2-0.4-0.2c-0.2-0.1-0.6-0.1-1-0.1c-0.5,0-0.9,0-1.2,0.1c-0.3,0.1-0.5,0.2-0.8,0.3l-2.6,1.7l1.5-0.2h-15.4l1.5,0.2
			l-2.6-1.7c-0.2-0.1-0.5-0.3-0.7-0.3C437.2,56.8,436.9,56.8,436.4,56.8z M446.9,62.9l-5.6-3.7l-0.9,0.2h13l-0.8-0.2L446.9,62.9
			L446.9,62.9z"/>
	</g>
	<g>
		<path class="st24" d="M464.7,56.8c-0.5,0-0.9,0-1.1,0.1c-0.3,0.1-0.4,0.2-0.4,0.3v6.3c0,0.2,0.1,0.3,0.4,0.4
			c0.3,0.1,0.6,0.1,1,0.1c0.4,0,0.7,0,0.9-0.1c0.2,0,0.5-0.1,0.7-0.2l15.3-5.6h-0.9v5.5c0,0.1,0.1,0.3,0.4,0.3
			c0.3,0.1,0.7,0.1,1.2,0.1s0.9,0,1.2-0.1s0.4-0.2,0.4-0.3v-6.3c0-0.1-0.1-0.3-0.4-0.3c-0.3-0.1-0.6-0.1-1-0.1c-0.4,0-0.7,0-1,0.1
			c-0.3,0-0.5,0.1-0.8,0.2l-15.2,5.6h0.8v-5.5c0-0.1-0.1-0.3-0.4-0.3C465.6,56.8,465.2,56.8,464.7,56.8z"/>
	</g>
	<g>
		<path class="st24" d="M498.2,56.8c-1.1,0-2.2,0-3.3,0.1c-1.1,0.1-2.1,0.1-3,0.2c-0.9,0.1-1.8,0.2-2.5,0.4
			c-0.3,0.1-0.5,0.1-0.7,0.2c-0.1,0.1-0.2,0.2-0.1,0.3c0.1,0.1,0.2,0.2,0.4,0.2c0.2,0.1,0.5,0.1,0.7,0.1c0.3,0,0.6,0,0.9-0.1
			c1.1-0.2,2.3-0.4,3.5-0.5c1.2-0.1,2.5-0.1,4-0.1c2.1,0,3.7,0.1,4.7,0.3c1,0.2,1.5,0.5,1.5,0.8c0,0.3-0.4,0.5-1.1,0.7
			c-0.7,0.2-1.9,0.3-3.6,0.4l-3.8,0.2c-2.3,0.1-3.9,0.4-5.1,0.7c-1.1,0.3-1.7,0.7-1.7,1.2c0,0.3,0.2,0.6,0.7,0.9
			c0.5,0.3,1.1,0.5,1.9,0.7c0.8,0.2,1.8,0.3,3,0.4c1.1,0.1,2.4,0.2,3.8,0.2c1.5,0,2.9-0.1,4.2-0.2c1.3-0.1,2.5-0.3,3.5-0.5
			c0.3-0.1,0.5-0.1,0.6-0.2c0.1-0.1,0.1-0.2,0.1-0.2c-0.1-0.1-0.2-0.1-0.4-0.2c-0.2-0.1-0.5-0.1-0.8-0.1c-0.3,0-0.6,0-1,0.1
			c-1,0.2-1.9,0.3-3,0.4c-1,0.1-2.1,0.1-3.3,0.1c-1.2,0-2.3-0.1-3.2-0.2c-0.9-0.1-1.6-0.3-2.1-0.4c-0.5-0.2-0.7-0.4-0.7-0.7
			c0-0.3,0.3-0.5,1-0.7c0.7-0.2,1.8-0.3,3.4-0.4l3.8-0.2c2.4-0.1,4.2-0.4,5.3-0.6c1.2-0.3,1.7-0.7,1.7-1.2c0-0.3-0.2-0.6-0.7-0.8
			c-0.4-0.2-1.1-0.5-1.9-0.6c-0.8-0.2-1.8-0.3-3-0.4C501,56.8,499.6,56.8,498.2,56.8z"/>
	</g>
</g>
<g>
	<path class="st24" d="M512,51H197c-0.6,0-1-0.4-1-1s0.4-1,1-1h315c0.6,0,1,0.4,1,1S512.6,51,512,51z"/>
</g>
</svg>
